<?xml version="1.0" encoding="UTF-8" standalone="no"?>
<!-- Created with Inkscape (http://www.inkscape.org/) -->

<svg
   xmlns:dc="http://purl.org/dc/elements/1.1/"
   xmlns:cc="http://creativecommons.org/ns#"
   xmlns:rdf="http://www.w3.org/1999/02/22-rdf-syntax-ns#"
   xmlns:svg="http://www.w3.org/2000/svg"
   xmlns="http://www.w3.org/2000/svg"
   xmlns:sodipodi="http://sodipodi.sourceforge.net/DTD/sodipodi-0.dtd"
   xmlns:inkscape="http://www.inkscape.org/namespaces/inkscape"
   width="55.196213mm"
   height="59.514927mm"
   viewBox="0 0 55.196213 59.514927"
   version="1.1"
   id="svg871"
   inkscape:version="0.92.2 (5c3e80d, 2017-08-06)"
   sodipodi:docname="snowflake.svg">
  <defs
     id="defs865" />
  <sodipodi:namedview
     id="base"
     pagecolor="#ffffff"
     bordercolor="#666666"
     borderopacity="1.0"
     inkscape:pageopacity="0.0"
     inkscape:pageshadow="2"
     inkscape:zoom="0.98994949"
     inkscape:cx="140.36678"
     inkscape:cy="169.6558"
     inkscape:document-units="mm"
     inkscape:current-layer="layer1"
     showgrid="false"
     inkscape:measure-start="0,0"
     inkscape:measure-end="0,0"
     fit-margin-top="0"
     fit-margin-left="0"
     fit-margin-right="0"
     fit-margin-bottom="0"
     inkscape:window-width="1920"
     inkscape:window-height="1011"
     inkscape:window-x="0"
     inkscape:window-y="33"
     inkscape:window-maximized="1" />
  <metadata
     id="metadata868">
    <rdf:RDF>
      <cc:Work
         rdf:about="">
        <dc:format>image/svg+xml</dc:format>
        <dc:type
           rdf:resource="http://purl.org/dc/dcmitype/StillImage" />
        <dc:title></dc:title>
      </cc:Work>
    </rdf:RDF>
  </metadata>
  <g
     inkscape:label="Layer 1"
     inkscape:groupmode="layer"
     id="layer1"
     transform="translate(-70.966638,-75.669822)">
    <path
       style="fill:#ffffff;stroke-width:0.26458332"
       d="m 97.49083,134.80976 c -0.463754,-0.33861 -0.521862,-0.77825 -0.598837,-4.53059 l -0.08525,-4.15558 -2.982982,2.94308 c -2.505513,2.472 -3.114134,2.94308 -3.802355,2.94308 -0.888935,0 -1.643129,-0.77772 -1.643129,-1.69439 0,-0.31553 1.656214,-2.18556 4.233333,-4.77986 l 4.233333,-4.26155 v -6.40606 c 0,-3.52333 -0.06594,-6.40606 -0.146536,-6.40606 -0.246079,0 -10.822911,6.17065 -10.987703,6.41035 -0.08472,0.12323 -0.787299,2.63061 -1.561294,5.57196 -1.538406,5.84628 -2.00355,6.75821 -3.283271,6.43703 -0.375789,-0.0943 -0.859976,-0.4412 -1.075971,-0.77086 -0.358283,-0.5468 -0.298968,-0.95471 0.676432,-4.65178 0.588034,-2.22883 1.031142,-4.08546 0.984685,-4.12586 -0.04646,-0.0404 -1.628197,0.80464 -3.514978,1.87786 -1.886782,1.07322 -3.634449,1.9513 -3.883706,1.9513 -0.601689,0 -1.243392,-0.66917 -1.456699,-1.51905 -0.223511,-0.89054 0.246134,-1.29316 4.079154,-3.49702 1.634584,-0.93984 2.971971,-1.77579 2.971971,-1.85768 0,-0.0819 -1.101328,-0.43183 -2.447396,-0.77765 -6.046811,-1.55351 -6.659003,-1.91077 -6.044378,-3.52735 0.464694,-1.22224 1.199537,-1.17773 7.239123,0.43845 l 5.592289,1.4965 5.172368,-2.96349 c 2.844803,-1.62992 5.375427,-3.09967 5.62361,-3.26611 0.382358,-0.25643 -0.407389,-0.79607 -5.173528,-3.53511 l -5.624769,-3.232481 -5.59113,1.496181 c -6.038381,1.61587 -6.773281,1.66036 -7.237963,0.43815 -0.614625,-1.616581 -0.0024,-1.973841 6.044378,-3.527351 1.346068,-0.34582 2.447396,-0.69916 2.447396,-0.7852 0,-0.086 -1.442671,-0.98152 -3.205936,-1.98996 -3.644216,-2.0842 -4.166927,-2.626023 -3.676229,-3.810674 0.353116,-0.852497 1.029614,-1.195272 1.846984,-0.935849 0.286588,0.09096 1.923698,0.981083 3.638021,1.978051 1.714323,0.996972 3.154961,1.775602 3.201418,1.730312 0.04646,-0.0453 -0.396651,-1.905953 -0.984685,-4.134783 -0.9754,-3.697067 -1.034715,-4.104975 -0.676432,-4.651784 0.215995,-0.329651 0.699702,-0.676413 1.074902,-0.770583 1.246843,-0.312937 1.646827,0.479167 3.28279,6.501033 0.835308,3.074717 1.563322,5.625297 1.617809,5.667967 0.2983,0.2336 10.836104,6.250071 10.946951,6.250071 0.07278,0 0.132323,-2.882731 0.132323,-6.406061 v -6.406064 l -4.233333,-4.26155 c -2.577119,-2.594296 -4.233333,-4.464329 -4.233333,-4.77986 0,-0.916665 0.754194,-1.694387 1.643129,-1.694387 0.688221,0 1.296842,0.471082 3.802355,2.943081 l 2.982982,2.943082 0.08525,-4.155588 c 0.07697,-3.752335 0.135083,-4.191976 0.598837,-4.530581 0.654978,-0.478227 1.49284,-0.478227 2.147818,0 0.463752,0.338605 0.521862,0.778246 0.598832,4.530581 l 0.0853,4.155588 2.98299,-2.943082 c 2.50551,-2.471999 3.11413,-2.943081 3.80235,-2.943081 0.88894,0 1.64313,0.777722 1.64313,1.694387 0,0.315531 -1.65621,2.185564 -4.23333,4.77986 l -4.23334,4.26155 v 6.406064 c 0,3.52333 0.0659,6.406061 0.14654,6.406061 0.24608,0 10.82291,-6.170651 10.9877,-6.410351 0.0847,-0.12323 0.7873,-2.63061 1.5613,-5.57196 1.57432,-5.982781 2.03489,-6.857107 3.36558,-6.389128 1.42113,0.499784 1.45367,1.089158 0.3018,5.465908 -0.57467,2.183564 -1.00884,4.00518 -0.96482,4.04804 0.044,0.0429 1.50878,-0.75702 3.25503,-1.777501 3.60353,-2.105857 4.41709,-2.290754 5.24923,-1.192992 0.51349,0.677405 0.52776,0.79723 0.1693,1.4222 -0.23336,0.406853 -1.7004,1.437723 -3.63259,2.552583 -1.78263,1.02857 -3.24115,1.9389 -3.24115,2.02298 0,0.0841 1.10133,0.4358 2.4474,0.78162 4.86388,1.2496 5.7604,1.58959 6.02472,2.28481 0.3458,0.909531 -0.0989,1.917001 -0.93925,2.127921 -0.45474,0.11413 -2.5832,-0.33452 -6.27906,-1.32353 l -5.59113,-1.496181 -5.62477,3.232481 c -4.76614,2.73904 -5.55588,3.27868 -5.17353,3.53511 0.24819,0.16644 2.77881,1.63619 5.62361,3.26611 l 5.17237,2.96349 5.59229,-1.4965 c 6.03959,-1.61618 6.77443,-1.66069 7.23912,-0.43845 0.61463,1.61658 0.002,1.97384 -6.04437,3.52735 -1.34607,0.34582 -2.4474,0.69916 -2.4474,0.78519 0,0.086 1.44267,0.98153 3.20594,1.98997 3.65478,2.09024 4.16764,2.62428 3.67119,3.82284 -0.57214,1.38125 -1.26474,1.29844 -4.5673,-0.54611 -1.63421,-0.91274 -3.23918,-1.83291 -3.5666,-2.04481 -0.32742,-0.21191 -0.59429,-0.2823 -0.59305,-0.15642 0.001,0.12588 0.46447,1.97349 1.02938,4.10581 1.13273,4.27558 1.09774,4.86905 -0.31636,5.36637 -1.33069,0.46798 -1.79126,-0.40635 -3.36558,-6.38913 -0.774,-2.94135 -1.47658,-5.44873 -1.5613,-5.57196 -0.16479,-0.2397 -10.74162,-6.41035 -10.9877,-6.41035 -0.0806,0 -0.14654,2.88273 -0.14654,6.40606 v 6.40606 l 4.23334,4.26155 c 2.57712,2.5943 4.23333,4.46433 4.23333,4.77986 0,0.91667 -0.75419,1.69439 -1.64313,1.69439 -0.68822,0 -1.29684,-0.47108 -3.80235,-2.94308 l -2.98299,-2.94308 -0.0853,4.15558 c -0.077,3.75234 -0.13508,4.19198 -0.598832,4.53059 -0.282474,0.20624 -0.765733,0.37499 -1.073909,0.37499 -0.308176,0 -0.791435,-0.16875 -1.073909,-0.37499 z"
       id="path1441"
       inkscape:connector-curvature="0" />
  </g>
</svg>
